<?xml version="1.0" standalone="no"?>
<!DOCTYPE svg PUBLIC "-//W3C//DTD SVG 20010904//EN"
 "http://www.w3.org/TR/2001/REC-SVG-20010904/DTD/svg10.dtd">
<svg version="1.0" xmlns="http://www.w3.org/2000/svg"
 width="1080.000000pt" height="1080.000000pt" viewBox="0 0 1080.000000 1080.000000"
 preserveAspectRatio="xMidYMid meet">

<g transform="translate(0.000000,1080.000000) scale(0.100000,-0.100000)"
fill="#000000" stroke="none">
<path d="M0 5400 l0 -5400 5400 0 5400 0 0 5400 0 5400 -5400 0 -5400 0 0
-5400z m4190 3785 c-7 -8 -9 -15 -5 -15 4 0 2 -7 -5 -15 -7 -9 -21 -13 -31
-10 -19 6 -28 -10 -9 -17 6 -2 6 -8 0 -18 -9 -13 -11 -13 -19 -1 -7 10 -9 5
-8 -19 2 -32 -17 -53 -26 -28 -2 8 -3 8 -3 -2 1 -10 11 -14 28 -13 26 1 30 -9
14 -36 -7 -10 -2 -12 23 -6 27 6 31 4 31 -14 0 -29 -3 -36 -15 -35 -13 1 -13
-48 -1 -58 5 -3 10 -17 12 -31 2 -24 0 -25 -38 -19 -32 4 -40 2 -36 -9 3 -8
12 -13 22 -11 17 3 22 -23 6 -33 -5 -3 -10 -2 -10 4 0 5 -9 9 -20 8 -11 -1
-19 -6 -19 -12 3 -24 -2 -36 -11 -30 -17 11 -52 -5 -46 -21 5 -12 2 -12 -15
-3 -15 8 -24 8 -32 0 -8 -8 -5 -11 11 -11 12 0 22 -4 22 -10 0 -6 -3 -9 -7 -9
-23 4 -33 -3 -33 -21 0 -22 -35 -46 -45 -30 -3 5 -10 10 -16 10 -5 0 -4 -9 3
-19 7 -11 17 -19 22 -18 13 2 8 -37 -5 -41 -5 -2 -9 -10 -9 -18 0 -8 -8 -14
-17 -14 -14 0 -15 2 -4 9 7 5 10 14 7 20 -4 6 0 11 8 11 21 0 20 19 0 27 -10
4 -22 -1 -29 -10 -7 -10 -20 -17 -29 -17 -21 0 -21 -19 2 -36 16 -13 15 -15
-8 -34 -14 -11 -32 -20 -40 -20 -12 0 -11 -3 3 -11 9 -5 22 -7 28 -3 7 4 9 -2
7 -17 -2 -18 -10 -25 -30 -27 -16 -2 -28 -8 -28 -14 0 -6 -9 -8 -20 -5 -26 7
-35 -9 -17 -28 13 -13 16 -13 21 1 4 10 14 14 25 11 12 -3 22 1 26 10 4 12 15
14 50 10 52 -8 76 -1 68 19 -3 9 1 14 13 14 31 0 47 -16 40 -38 -4 -11 -3 -23
2 -26 6 -3 12 3 15 14 7 28 26 25 37 -5 9 -24 30 -35 30 -15 0 6 3 9 8 9 37
-6 62 4 83 36 24 35 52 51 77 46 9 -1 12 4 7 18 -7 23 13 40 25 20 7 -10 11
-10 24 0 9 8 16 10 16 5 0 -5 5 -2 10 6 9 13 11 13 20 0 8 -13 10 -12 10 4 0
12 5 16 15 12 23 -8 32 24 12 39 -19 13 -23 35 -7 35 6 0 10 -7 10 -15 0 -8
10 -19 21 -26 17 -8 20 -8 14 1 -4 7 -1 16 6 21 21 13 29 11 22 -7 -4 -10 -1
-15 8 -14 28 4 39 0 39 -16 0 -8 5 -12 10 -9 6 3 10 1 10 -4 0 -6 6 -11 14
-11 7 0 16 -9 19 -21 3 -12 3 -18 0 -15 -7 7 -33 -13 -33 -26 0 -5 4 -7 9 -4
5 4 6 -4 3 -16 -5 -19 -7 -20 -10 -5 -2 9 -7 15 -11 13 -4 -3 -7 4 -8 15 -2
24 -33 70 -33 48 0 -8 5 -20 12 -27 8 -8 8 -15 -1 -26 -8 -10 -9 -16 -1 -21 7
-4 7 -12 0 -26 -6 -11 -8 -24 -5 -29 3 -5 -6 -7 -20 -4 -29 5 -33 -11 -8 -38
13 -15 14 -18 2 -13 -12 4 -15 -3 -16 -37 -1 -43 -25 -73 -50 -64 -7 3 -13 -1
-13 -9 0 -8 6 -15 13 -15 7 0 18 -9 24 -20 11 -16 10 -18 -4 -13 -11 4 -14 3
-9 -5 4 -7 3 -12 -3 -12 -5 0 -11 4 -13 9 -1 4 -12 0 -22 -10 -18 -18 -18 -18
5 -14 22 4 22 3 7 -9 -18 -13 -26 -32 -10 -22 4 2 14 1 22 -4 12 -7 12 -11 0
-25 -12 -14 -12 -18 0 -25 9 -5 17 -5 21 1 4 7 9 4 12 -5 4 -9 3 -16 -2 -16
-15 0 -7 -57 11 -77 12 -13 17 -43 20 -109 3 -95 -6 -124 -30 -95 -10 12 -14
13 -19 3 -4 -10 -8 -10 -19 -1 -16 14 -19 33 -3 23 8 -5 8 -1 0 13 -6 13 -7
23 0 30 6 6 4 16 -5 29 -8 10 -18 16 -22 11 -4 -4 -2 -13 4 -19 15 -15 16 -28
2 -28 -5 0 -10 6 -10 14 0 8 -6 17 -12 20 -9 3 -8 8 5 16 21 14 22 34 1 54
-14 15 -14 16 3 17 16 0 16 1 -2 9 -11 5 -15 9 -10 10 6 0 3 6 -6 13 -9 7 -18
21 -20 32 -3 11 -11 20 -19 21 -37 1 -58 15 -53 34 4 15 0 20 -15 20 -11 0
-23 6 -25 13 -3 7 -6 5 -6 -5 -1 -10 -5 -18 -10 -18 -5 0 -8 7 -7 16 0 9 -5
19 -11 21 -7 3 -13 -3 -13 -12 0 -9 -6 -15 -12 -14 -31 4 -48 -2 -48 -17 0 -8
-4 -13 -9 -9 -5 3 -12 1 -16 -5 -4 -7 -13 -7 -26 1 -16 8 -28 6 -55 -10 -23
-14 -48 -20 -74 -18 -24 2 -36 -1 -33 -7 4 -5 -1 -7 -11 -3 -10 4 -27 2 -39
-4 -27 -15 -117 -21 -117 -9 0 6 6 10 13 10 6 0 4 5 -5 11 -10 5 -18 15 -18
20 0 6 5 7 10 4 12 -7 12 -3 4 20 -5 12 -9 13 -14 5 -4 -6 -18 -13 -31 -15
-13 -1 -32 -6 -41 -10 -11 -4 -18 -3 -18 4 0 6 12 14 28 17 26 7 42 20 42 37
0 5 -13 -1 -29 -12 -30 -22 -41 -19 -41 10 0 13 5 16 16 12 12 -4 15 -2 10 8
-3 8 -9 22 -12 32 -4 9 -11 17 -16 17 -5 0 -6 5 -3 10 3 6 17 7 31 4 17 -5 24
-2 24 9 0 8 2 21 3 29 2 7 2 10 0 6 -8 -13 -23 -9 -23 6 0 7 9 16 20 19 11 3
20 13 20 23 0 9 8 26 17 36 14 16 15 21 4 28 -8 4 -12 17 -8 29 4 18 1 21 -21
20 -17 -1 -21 -3 -9 -6 12 -3 17 -15 17 -41 0 -47 -19 -81 -21 -37 0 24 -2 26
-8 11 -7 -19 -8 -18 -15 5 -7 23 -8 23 -26 -16 -11 -22 -20 -33 -20 -25 0 9
-9 16 -20 16 -13 0 -20 -7 -20 -18 0 -10 -5 -18 -11 -18 -6 0 -8 -9 -4 -20 4
-14 2 -20 -6 -18 -7 2 -14 -4 -15 -12 -3 -36 -5 -40 -14 -40 -5 0 -10 7 -10
15 0 8 -4 15 -8 15 -5 0 -9 15 -10 33 -1 31 0 31 15 12 14 -19 14 -18 7 15
-11 49 -13 103 -4 115 4 6 10 20 13 33 4 19 2 22 -14 17 -14 -5 -19 -2 -19 11
0 10 -8 26 -17 37 -15 17 -16 20 -2 15 9 -4 22 -2 30 3 11 7 11 9 0 9 -14 0
-11 25 11 77 6 15 11 31 10 36 -1 4 2 7 7 7 5 0 6 21 3 46 -5 44 -4 46 17 39
24 -7 30 12 6 21 -8 4 -15 10 -15 16 0 5 5 6 10 3 6 -3 14 5 19 18 5 13 21 33
35 45 14 11 26 25 26 31 0 6 10 11 21 11 12 0 35 15 53 33 30 32 62 52 79 48
4 0 10 6 13 14 4 8 13 15 21 15 7 0 26 12 40 28 15 15 23 21 19 15 -8 -15 20
-18 28 -4 4 5 24 12 46 16 25 4 40 12 40 21 0 8 6 14 13 14 8 0 22 16 33 35
10 20 24 33 30 31 6 -2 16 6 23 20 8 19 18 24 45 24 19 0 36 -6 39 -12 3 -10
7 -10 20 1 9 7 14 17 11 22 -3 5 2 9 12 9 13 0 14 -3 4 -15z m128 -12 c-14
-17 -25 -16 -25 1 0 8 8 14 18 13 14 -1 15 -4 7 -14z m-118 -237 c0 -3 -4 -8
-10 -11 -5 -3 -10 -1 -10 4 0 6 5 11 10 11 6 0 10 -2 10 -4z m-30 -147 c0 -5
-8 -9 -17 -8 -11 0 -13 3 -5 6 6 2 9 10 6 15 -4 7 -2 8 4 4 7 -4 12 -11 12
-17z m-30 -63 c0 -9 -30 -14 -35 -6 -4 6 3 10 14 10 12 0 21 -2 21 -4z m113
-106 c-7 -27 -44 -66 -50 -52 -2 6 -15 12 -28 12 -34 0 -40 18 -16 44 12 12
21 28 21 34 0 7 9 12 19 12 11 0 23 5 27 11 9 14 32 -40 27 -61z m177 10 c0
-5 -7 -7 -15 -4 -8 4 -15 8 -15 10 0 2 7 4 15 4 8 0 15 -4 15 -10z m-246 -69
c3 -5 0 -14 -8 -20 -10 -9 -15 -8 -19 3 -9 22 15 37 27 17z m466 5 c0 -3 -4
-8 -10 -11 -5 -3 -10 -1 -10 4 0 6 5 11 10 11 6 0 10 -2 10 -4z m400 -176 c0
-5 6 -10 14 -10 9 0 12 -10 9 -35 -2 -23 0 -34 8 -33 6 2 12 -7 14 -19 1 -13
-4 -23 -11 -23 -6 0 -14 -8 -17 -19 -2 -10 -16 -20 -30 -23 -15 -3 -24 -2 -22
3 3 4 -4 11 -15 14 -12 4 -25 18 -31 32 -12 32 -12 76 1 68 6 -3 10 -1 10 4 0
18 34 49 53 50 9 1 17 -3 17 -9z m-1553 -226 c-3 -3 -12 -4 -19 -1 -8 3 -5 6
6 6 11 1 17 -2 13 -5z m159 -134 c0 -14 -7 -20 -22 -20 -13 0 -26 -10 -34 -27
l-13 -28 -7 25 c-8 31 4 50 29 43 11 -3 21 2 24 11 9 22 23 20 23 -4z m631 -6
c-3 -3 -12 -4 -19 -1 -8 3 -5 6 6 6 11 1 17 -2 13 -5z m-767 -64 c0 -5 -7 -10
-16 -10 -8 0 -12 5 -9 10 3 6 10 10 16 10 5 0 9 -4 9 -10z m1600 -50 c-8 -5
-19 -10 -25 -10 -5 0 -3 5 5 10 8 5 20 10 25 10 6 0 3 -5 -5 -10z m447 -4 c3
-3 -1 -6 -10 -6 -9 0 -17 -4 -17 -10 0 -5 7 -10 16 -10 14 0 14 -3 3 -16 -10
-12 -10 -20 -2 -34 15 -23 5 -60 -16 -61 -10 0 -11 -2 -3 -6 20 -8 13 -27 -15
-40 -20 -10 -29 -10 -34 -2 -8 13 -29 -20 -29 -44 0 -8 -8 -21 -17 -28 -15
-12 -16 -12 -10 4 4 11 3 16 -3 12 -6 -3 -10 -13 -10 -22 0 -13 -2 -14 -17 -2
-15 12 -16 12 -10 -6 4 -11 -23 14 -60 54 -38 41 -67 79 -65 83 1 4 -1 7 -5 6
-5 -2 -19 6 -33 16 -14 10 -17 16 -8 13 9 -3 29 4 45 15 15 12 25 18 21 14 -9
-10 20 -41 30 -32 3 4 0 11 -7 15 -11 7 -8 13 13 26 29 19 34 35 11 35 -8 0
-15 5 -15 10 0 15 11 12 32 -7 16 -14 24 -15 49 -6 17 7 36 10 43 7 7 -3 19 2
26 11 17 20 31 19 23 -2 -6 -16 -5 -16 10 -4 9 7 15 17 12 21 -6 9 42 6 52 -4z
m-593 -53 c22 9 35 -8 41 -48 2 -22 9 -41 15 -43 5 -2 10 -10 10 -18 0 -8 7
-14 16 -14 9 0 14 -5 12 -11 -2 -6 -7 -10 -11 -10 -4 1 -17 1 -29 1 -23 0
-120 82 -130 110 -3 8 1 23 10 32 11 13 19 15 34 7 11 -6 25 -8 32 -6z m-406
-20 c16 -9 34 -29 41 -45 22 -48 61 -88 87 -88 35 0 30 -26 -7 -34 -17 -3 -35
-3 -40 0 -5 3 -9 0 -9 -5 0 -6 6 -11 13 -11 8 0 22 -9 32 -20 10 -11 23 -20
29 -20 7 0 20 -13 29 -30 12 -20 23 -27 35 -23 9 3 14 2 9 -2 -4 -5 -1 -15 7
-24 8 -9 16 -25 18 -36 2 -12 10 -19 21 -17 9 2 17 -2 17 -8 0 -5 9 -10 20
-10 11 0 20 -5 20 -10 0 -14 26 -40 68 -69 17 -12 32 -28 32 -35 0 -7 9 -21
20 -31 11 -10 20 -24 20 -31 0 -7 6 -17 13 -21 7 -4 19 -22 26 -40 7 -18 21
-35 32 -38 11 -4 16 -12 12 -21 -7 -19 15 -44 33 -37 8 3 14 -1 14 -11 0 -9 5
-16 10 -16 6 0 10 -9 10 -20 0 -13 7 -20 18 -20 24 0 42 -19 35 -36 -3 -8 0
-14 7 -14 7 0 10 -7 6 -15 -3 -10 1 -15 12 -15 11 0 18 -8 19 -21 1 -11 13
-29 27 -40 44 -35 85 -105 81 -139 -2 -16 0 -30 6 -30 25 0 20 -34 -12 -66
-41 -43 -63 -45 -57 -5 3 21 1 28 -9 24 -7 -3 -13 1 -13 8 0 7 -3 10 -6 6 -7
-7 -24 6 -67 53 -18 19 -56 59 -86 89 -29 31 -78 89 -110 131 -31 41 -81 101
-112 133 -31 33 -76 83 -100 113 -24 30 -76 94 -115 142 -62 77 -180 248 -212
309 -13 24 -16 76 -5 87 4 3 17 -6 29 -21 12 -16 26 -24 31 -20 4 5 -7 22 -24
38 -32 28 -35 53 -9 71 16 11 21 10 54 -9z m672 13 c0 -9 -30 -14 -35 -6 -4 6
3 10 14 10 12 0 21 -2 21 -4z m-1390 -44 c0 -5 11 -7 25 -4 17 3 27 -1 31 -12
3 -9 10 -13 15 -10 15 9 10 -10 -10 -35 -14 -19 -17 -31 -10 -49 6 -16 6 -21
-2 -16 -6 4 -9 -1 -8 -12 4 -24 -19 -66 -32 -59 -5 4 -9 1 -9 -5 0 -7 -8 -9
-20 -5 -12 4 -28 1 -37 -7 -15 -11 -16 -11 -10 5 4 10 2 17 -6 17 -7 0 -25 7
-41 15 -26 14 -31 14 -38 1 -10 -18 -38 -10 -38 10 0 19 -47 29 -65 14 -12
-10 -15 -9 -15 8 0 23 35 36 62 21 10 -5 18 -6 18 -1 0 4 -12 13 -27 19 -26
10 -26 11 -5 12 12 1 21 4 20 9 -1 4 14 24 35 45 20 20 37 34 37 30 0 -4 4 -3
10 3 12 12 120 18 120 6z m1074 -48 c6 -8 19 -16 28 -18 9 -1 28 -13 42 -27
14 -13 50 -44 80 -69 57 -47 69 -70 38 -70 -26 0 -142 109 -143 134 0 19 -1
19 -8 3 -6 -18 -7 -18 -23 0 -20 24 -41 63 -32 63 4 0 12 -7 18 -16z m-514
-21 c0 -22 -2 -25 -10 -13 -8 11 -9 8 -4 -13 3 -15 1 -33 -5 -41 -8 -10 -9
-16 -1 -21 5 -3 10 0 10 8 0 8 11 18 25 21 21 5 24 10 19 33 -5 18 -4 24 5 19
6 -4 11 -31 11 -62 0 -34 4 -54 12 -54 6 0 8 -3 4 -7 -4 -5 -26 -8 -49 -8 -50
0 -73 28 -57 71 6 14 7 36 4 49 -5 19 12 42 34 45 1 0 2 -12 2 -27z m-40 -43
c0 -5 -5 -10 -11 -10 -5 0 -7 5 -4 10 3 6 8 10 11 10 2 0 4 -4 4 -10z m60 0
c0 -5 -4 -10 -10 -10 -5 0 -10 5 -10 10 0 6 5 10 10 10 6 0 10 -4 10 -10z
m733 -125 c-3 -9 -8 -14 -10 -11 -3 3 -2 9 2 15 9 16 15 13 8 -4z m-771 -60
c15 -16 37 -49 48 -72 11 -24 27 -43 35 -43 8 0 15 -4 15 -10 0 -5 -9 -10 -20
-10 -21 0 -120 90 -120 110 0 5 -7 10 -15 10 -20 0 -19 21 3 48 10 13 19 17
21 9 2 -6 17 -25 33 -42z m-132 15 c8 -5 11 -13 6 -17 -5 -4 -11 -2 -13 5 -3
6 -9 10 -14 6 -5 -3 -9 0 -9 5 0 13 10 14 30 1z m-50 -48 c0 -14 -39 -46 -47
-39 -3 4 -2 7 4 7 6 0 13 9 16 20 5 19 27 29 27 12z m26 -41 c-1 -17 1 -28 5
-26 11 7 39 -30 49 -66 8 -27 7 -35 -6 -42 -11 -6 -14 -17 -10 -35 3 -15 3
-21 0 -14 -9 19 -24 4 -24 -24 0 -14 -9 -34 -20 -46 -10 -12 -17 -25 -14 -29
2 -5 -7 -16 -21 -25 -14 -9 -25 -24 -25 -33 0 -12 -2 -13 -8 -3 -6 8 -16 -6
-32 -43 -15 -36 -28 -54 -36 -51 -8 3 -16 1 -19 -4 -4 -6 -1 -10 6 -10 7 0 8
-4 2 -12 -5 -7 -15 -26 -22 -42 -10 -26 -10 -28 3 -17 11 9 17 9 27 -2 8 -8
20 -12 29 -10 15 4 40 -36 40 -64 0 -15 32 -33 59 -33 12 0 21 -6 21 -14 0
-25 -32 -41 -79 -39 -39 1 -44 0 -29 -11 10 -7 16 -15 14 -17 -3 -2 19 -3 47
-2 29 1 44 -1 34 -3 -15 -5 -13 -9 15 -24 18 -10 43 -23 56 -29 26 -12 27 -17
7 -55 -14 -26 -14 -28 3 -21 44 18 56 19 49 2 -5 -12 -1 -17 14 -17 11 0 40
-20 65 -45 24 -25 48 -45 53 -45 8 0 23 -24 25 -41 2 -13 54 -67 60 -62 13 13
5 -19 -11 -43 l-16 -26 36 21 c26 14 37 17 38 8 3 -28 -4 -62 -12 -65 -5 -2
-7 -8 -4 -13 4 -5 16 0 27 11 25 23 46 27 28 5 -14 -16 -5 -35 16 -35 8 0 17
-7 21 -16 3 -8 12 -13 20 -10 7 3 16 -1 19 -9 4 -8 14 -15 23 -15 9 0 22 -13
28 -30 7 -20 16 -28 26 -25 16 7 39 -17 35 -36 -2 -8 5 -13 15 -13 13 2 16 -3
12 -17 -4 -13 -2 -19 9 -19 15 0 56 -34 56 -46 0 -9 32 -38 54 -49 11 -6 23
-21 26 -35 4 -14 12 -24 18 -23 6 2 16 -14 23 -35 16 -49 39 -83 51 -76 5 3
18 -3 29 -15 24 -25 24 -30 1 -24 -13 3 -18 -2 -18 -16 0 -24 7 -26 24 -9 17
17 28 2 12 -17 -11 -14 -7 -19 13 -16 4 0 7 -6 7 -14 0 -8 -7 -15 -15 -15 -8
0 -15 -2 -15 -4 0 -2 -3 -13 -7 -23 -6 -16 -5 -16 10 -4 15 12 17 11 17 -8 0
-11 -5 -21 -11 -21 -8 0 -8 -4 0 -14 6 -7 9 -20 5 -29 -3 -8 -1 -18 5 -22 6
-3 11 -14 11 -23 0 -10 13 -22 31 -29 22 -9 30 -17 26 -28 -5 -11 0 -15 15
-15 12 0 19 -3 15 -6 -3 -4 0 -12 7 -19 7 -8 19 -41 26 -74 10 -49 17 -61 32
-61 11 0 17 -4 13 -10 -3 -5 1 -25 9 -43 13 -33 13 -34 -5 -30 -12 4 -19 0
-19 -10 0 -8 9 -17 20 -20 25 -6 26 -34 3 -60 -17 -18 -17 -19 0 -28 9 -6 17
-19 17 -29 0 -10 5 -22 10 -25 6 -3 10 -1 10 5 0 6 5 8 11 4 8 -4 8 -9 0 -17
-6 -6 -11 -22 -11 -35 0 -18 4 -23 16 -18 14 5 15 4 5 -8 -14 -17 -11 -67 4
-66 6 0 10 7 10 14 0 8 4 18 8 22 4 4 7 -2 7 -14 0 -12 4 -22 10 -22 6 0 6 -9
0 -26 -14 -36 -12 -47 7 -40 9 4 20 1 25 -6 14 -23 9 -30 -17 -26 -17 4 -25 1
-25 -8 0 -8 7 -14 15 -14 9 0 15 -9 15 -23 0 -12 7 -33 16 -45 16 -23 16 -23
-25 -34 -19 -5 -23 -39 -6 -52 20 -17 29 -56 13 -56 -8 0 -20 6 -27 13 -11 10
-13 9 -8 -4 4 -13 1 -15 -14 -12 -13 4 -19 0 -19 -11 0 -16 -12 -21 -23 -9 -4
3 1 11 10 18 20 15 8 38 -15 31 -35 -11 -91 19 -121 65 -17 24 -44 59 -61 78
-17 19 -42 57 -56 85 -13 28 -32 65 -43 82 -10 16 -22 41 -26 55 -4 13 -15 42
-25 64 -26 59 -34 79 -35 90 0 12 -21 84 -36 130 -6 17 -12 39 -14 50 -2 11
-21 70 -43 131 -21 61 -42 124 -45 140 -9 48 -46 156 -73 211 -26 55 -154 239
-198 286 -14 15 -26 30 -26 33 0 5 -39 62 -55 80 -5 6 -32 37 -60 69 -27 32
-60 68 -72 80 -13 12 -23 25 -23 29 0 4 -13 18 -29 32 -17 14 -33 34 -36 45
-7 22 -55 96 -55 86 0 -3 -11 5 -25 19 -14 14 -25 29 -25 34 0 5 -6 13 -13 17
-7 4 -32 37 -56 73 -24 36 -49 68 -54 72 -6 3 -13 37 -16 75 -4 42 -11 69 -18
71 -8 1 -13 -8 -13 -21 0 -13 -7 -38 -16 -55 -12 -25 -20 -31 -42 -28 -15 2
-21 1 -14 -1 18 -7 15 -23 -5 -24 -16 -1 -17 -2 -1 -6 10 -2 15 -10 11 -19 -3
-8 0 -14 7 -14 6 0 8 -5 5 -10 -4 -6 -11 -8 -16 -4 -6 3 -16 -2 -24 -12 -11
-15 -16 -17 -26 -6 -18 17 -39 15 -39 -3 0 -9 9 -15 22 -15 27 0 21 -5 -14
-14 -20 -4 -28 -2 -28 6 0 8 -15 14 -38 16 -20 1 -38 7 -40 12 -2 6 -10 10
-18 10 -8 0 -14 7 -14 16 0 13 -3 14 -13 5 -18 -14 -42 28 -32 58 3 11 2 21
-3 21 -5 0 -14 29 -20 64 -15 78 -15 99 -2 91 6 -4 10 7 10 24 0 17 -4 31 -10
31 -5 0 -10 -5 -10 -11 0 -6 -6 -17 -14 -25 -13 -12 -14 -11 -12 8 1 13 6 31
9 41 16 40 17 49 5 44 -7 -2 -12 -11 -10 -20 1 -8 -2 -18 -8 -22 -9 -6 -14 7
-11 28 2 12 -17 8 -22 -5 -3 -7 -6 -1 -6 14 -1 20 3 26 14 22 8 -4 17 1 21 10
3 9 12 16 20 16 21 0 17 17 -5 23 -18 4 -18 6 3 51 12 27 26 44 34 41 7 -3 12
4 12 18 0 16 3 18 9 8 7 -10 13 -11 31 -1 15 8 20 8 16 1 -4 -6 -2 -11 3 -11
6 0 11 7 11 16 0 11 5 14 18 9 20 -8 26 -8 65 1 33 8 37 -12 5 -26 -14 -5 -17
-9 -8 -10 13 0 13 -2 0 -11 -12 -9 -11 -9 5 -3 11 4 33 7 48 6 20 -1 27 3 24
12 -4 9 2 12 19 8 15 -3 26 1 30 11 3 9 12 13 20 10 10 -3 12 0 9 10 -4 10 6
19 34 31 23 9 41 20 41 26 0 5 5 10 10 10 6 0 8 -12 6 -27 -8 -41 4 -47 35
-17 34 33 37 48 7 39 l-21 -7 23 38 c27 44 89 110 107 113 6 0 10 -11 9 -28z
m99 -3 c13 -13 35 -32 49 -43 14 -11 26 -24 26 -29 0 -14 42 -56 55 -56 21 0
75 -59 75 -83 0 -12 4 -26 8 -32 10 -15 49 -35 67 -35 8 0 15 -7 15 -15 0 -8
10 -17 23 -20 13 -4 30 -22 42 -47 11 -22 32 -50 47 -61 15 -11 32 -38 39 -63
8 -24 17 -44 22 -44 5 0 7 -9 4 -19 -4 -17 8 -80 28 -138 4 -13 13 -19 21 -16
9 3 14 -1 14 -12 0 -9 4 -14 9 -10 5 3 12 1 16 -5 3 -5 31 -10 61 -10 55 0 64
-6 42 -28 -9 -9 -8 -12 6 -12 9 0 15 -4 11 -9 -3 -5 8 -18 24 -27 17 -10 31
-27 33 -38 2 -13 12 -22 25 -24 14 -2 20 -8 16 -18 -3 -8 0 -14 7 -14 10 0 10
-3 0 -15 -10 -12 -9 -15 4 -15 9 0 29 -12 44 -27 15 -15 30 -28 35 -29 4 -1
11 -2 17 -3 5 0 7 -8 4 -16 -4 -9 0 -15 9 -15 9 0 19 -10 23 -22 3 -13 15 -31
25 -41 12 -12 19 -32 19 -57 0 -44 -1 -44 33 -31 18 7 26 5 36 -10 6 -11 16
-17 20 -14 13 7 121 -123 121 -146 0 -22 1 -22 -36 -9 -16 6 -41 29 -56 50
-15 22 -34 40 -43 40 -8 0 -12 6 -9 14 3 7 -2 16 -11 20 -9 3 -18 0 -21 -8 -6
-15 10 -140 21 -167 5 -14 0 -17 -29 -17 -19 0 -39 -3 -45 -6 -5 -4 -30 -10
-55 -15 l-45 -8 -15 39 c-9 21 -16 47 -16 59 0 29 -26 86 -73 159 -48 74 -43
68 -99 139 -24 29 -47 62 -53 72 -5 11 -15 19 -22 19 -7 0 -13 4 -13 9 0 5 -9
13 -20 16 -11 4 -18 11 -15 16 4 5 0 16 -9 24 -21 21 -29 18 -15 -6 9 -19 7
-26 -20 -53 -27 -26 -34 -29 -49 -18 -9 6 -40 26 -69 42 -28 17 -57 37 -63 45
-19 23 -1 38 37 32 34 -6 35 -5 30 22 -6 28 14 71 33 71 5 0 21 -12 35 -27
l26 -28 -21 40 c-34 64 -41 74 -109 154 -28 34 -30 34 -59 20 -16 -8 -48 -38
-70 -66 -52 -65 -58 -68 -72 -42 -7 12 -8 19 -2 15 5 -3 12 3 15 14 3 12 14
20 27 20 19 0 20 2 10 15 -10 12 -10 15 2 15 13 0 27 9 75 50 7 5 17 10 23 10
6 0 -7 28 -29 63 -22 34 -52 89 -67 122 -16 33 -40 73 -54 88 -14 16 -32 46
-40 66 -8 21 -35 68 -59 104 -74 114 -90 199 -26 135z m977 -32 c13 -18 9 -36
-7 -36 -8 0 -15 9 -15 20 0 11 -7 20 -15 20 -8 0 -15 5 -15 11 0 13 42 1 52
-15z m-1702 -16 c0 -5 -9 -10 -21 -10 -11 0 -17 5 -14 10 3 6 13 10 21 10 8 0
14 -4 14 -10z m-4 -42 c-13 -22 -32 -23 -39 -4 -7 19 1 26 28 24 19 -2 21 -5
11 -20z m1 -155 c-3 -10 -5 -4 -5 12 0 17 2 24 5 18 2 -7 2 -21 0 -30z m-10
-195 c-3 -8 -6 -5 -6 6 -1 11 2 17 5 13 3 -3 4 -12 1 -19z m717 -50 c4 -14 10
-15 41 -7 42 12 61 4 24 -9 -17 -7 -23 -17 -24 -38 0 -21 -5 -29 -17 -28 -11
1 -14 -4 -10 -14 4 -12 -3 -10 -26 6 -40 29 -46 40 -32 57 6 8 9 19 5 25 -3 5
-1 10 4 10 6 0 11 12 12 28 0 24 1 25 9 7 5 -11 11 -28 14 -37z m276 -71 c0
-7 -9 -18 -20 -25 -12 -7 -20 -8 -20 -2 0 5 5 10 11 10 6 0 9 7 5 15 -3 9 0
15 9 15 8 0 15 -6 15 -13z m300 -36 c0 -5 -6 -14 -14 -20 -12 -10 -13 -8 -9 8
5 21 23 30 23 12z m27 -27 c-3 -3 -12 -4 -19 -1 -8 3 -5 6 6 6 11 1 17 -2 13
-5z m-7 -41 l-22 -28 24 -3 c25 -4 51 -22 31 -22 -25 0 -61 19 -67 36 -8 21
10 44 36 44 19 0 19 -1 -2 -27z m70 -42 c0 -6 -4 -11 -10 -11 -5 0 -10 7 -10
15 0 8 -5 15 -11 15 -5 0 -7 5 -4 10 7 11 35 -12 35 -29z m470 -20 c0 -5 -17
-24 -37 -41 -45 -40 -59 -23 -17 21 27 28 54 38 54 20z m56 -26 c8 -8 14 -17
14 -20 -1 -12 32 -66 37 -61 9 9 43 -25 43 -43 0 -9 9 -29 20 -46 11 -16 25
-47 30 -67 6 -22 17 -38 25 -38 8 0 14 -8 13 -17 -3 -44 2 -62 17 -57 12 5 13
1 4 -25 -10 -29 -9 -34 31 -72 l41 -40 -22 -20 c-12 -10 -27 -19 -32 -19 -13
0 -67 57 -67 70 0 5 -6 10 -14 10 -8 0 -17 11 -20 25 -4 15 -16 27 -30 31 -42
10 -92 81 -188 263 l-28 55 22 24 c20 21 76 62 86 62 2 0 10 -7 18 -15z m-816
-91 c0 -8 -4 -12 -10 -9 -5 3 -10 10 -10 16 0 5 5 9 10 9 6 0 10 -7 10 -16z
m215 -197 c27 -41 33 -58 27 -78 -7 -25 -8 -24 -72 39 -36 35 -56 61 -46 58
13 -4 24 0 33 14 8 11 16 20 18 20 3 0 20 -24 40 -53z m-705 -62 c0 -9 6 -12
15 -9 10 4 15 0 15 -16 0 -12 4 -18 11 -15 6 4 13 -2 16 -14 5 -21 18 -26 61
-22 15 1 21 -2 17 -9 -10 -16 15 -80 31 -80 8 0 14 -9 14 -19 0 -11 7 -27 16
-35 8 -9 13 -16 9 -16 -3 0 -1 -9 5 -20 7 -14 7 -20 0 -20 -5 0 -10 -4 -10
-10 0 -5 11 -10 25 -10 14 0 25 5 25 10 0 6 9 10 20 10 33 0 42 32 20 76 -11
21 -20 40 -20 43 0 11 40 -34 45 -50 4 -11 12 -19 19 -19 6 0 29 -28 49 -62
21 -35 53 -86 72 -115 22 -33 28 -50 18 -46 -12 5 -14 1 -8 -15 11 -38 9 -84
-6 -94 -11 -8 -11 -9 3 -5 20 7 30 -24 14 -44 -15 -18 -57 -23 -69 -7 -7 10
-10 10 -14 1 -7 -19 -24 -15 -21 5 2 9 -3 16 -9 14 -7 -1 -13 3 -13 9 0 5 -4
7 -10 4 -5 -3 -10 -2 -10 3 0 5 -16 24 -35 43 -19 19 -35 40 -35 47 0 6 -4 12
-10 12 -5 0 -10 9 -10 20 0 20 -36 46 -59 41 -7 -1 -10 2 -7 8 4 5 2 12 -4 16
-6 4 -8 11 -5 16 4 5 -8 21 -25 35 -17 15 -29 33 -26 40 3 8 1 14 -4 14 -13 0
-50 37 -43 43 7 8 -16 47 -28 47 -23 0 -58 57 -63 103 -1 15 -11 34 -21 41
-16 11 -17 17 -7 28 6 8 9 18 5 21 -3 4 -1 7 5 7 5 0 13 -6 15 -12 3 -7 6 -3
6 10 1 24 21 21 21 -3z m810 -85 c12 -17 20 -38 18 -48 -3 -15 -7 -13 -31 10
-26 26 -37 68 -18 68 5 0 19 -14 31 -30z m-976 -22 c4 -18 7 -19 20 -8 15 11
20 7 17 -13 -1 -5 4 -5 10 -1 14 8 39 -21 129 -152 38 -55 79 -109 90 -119 11
-10 20 -24 20 -32 0 -7 5 -13 11 -13 6 0 9 -6 6 -13 -5 -14 31 -43 41 -33 8 8
32 -65 26 -76 -3 -5 -12 -4 -20 3 -12 9 -20 9 -40 -1 -19 -11 -27 -11 -37 -1
-8 9 -8 11 -1 9 7 -2 12 0 13 5 3 21 0 27 -14 27 -8 0 -15 5 -15 11 0 6 7 8
16 5 14 -5 15 -4 4 9 -12 14 -15 14 -31 -1 -11 -10 -19 -12 -19 -6 0 7 -8 12
-17 13 -13 1 -10 4 7 10 21 7 19 8 -11 5 -24 -3 -36 0 -36 7 1 37 -4 49 -18
43 -9 -3 -15 0 -15 10 0 8 -4 12 -10 9 -6 -3 -7 1 -4 9 4 11 0 16 -10 16 -9 0
-20 10 -25 23 -5 12 -17 30 -28 39 -42 39 -55 57 -48 67 4 7 0 8 -11 4 -12 -4
-15 -3 -10 6 4 7 -2 20 -16 32 -13 11 -18 18 -11 15 6 -4 14 -2 17 3 3 5 -1
12 -10 15 -8 3 -13 10 -10 15 3 5 -4 21 -15 35 -12 15 -20 28 -18 30 16 13 45
23 55 19 7 -2 14 -14 18 -25z m-145 -45 c-1 -10 -5 -29 -9 -43 -7 -21 -8 -19
-9 18 -1 23 4 42 9 42 6 0 10 -8 9 -17z m496 -443 c19 -8 19 -9 -2 -9 -12 -1
-25 4 -28 9 -7 12 2 12 30 0z m422 -42 c-3 -8 -6 -5 -6 6 -1 11 2 17 5 13 3
-3 4 -12 1 -19z m-92 -8 c3 -6 -1 -7 -9 -4 -18 7 -21 14 -7 14 6 0 13 -4 16
-10z m620 -310 c3 -5 -1 -10 -10 -10 -9 0 -13 5 -10 10 3 6 8 10 10 10 2 0 7
-4 10 -10z m55 -270 c0 -5 -7 -10 -15 -10 -8 0 -15 5 -15 10 0 6 7 10 15 10 8
0 15 -4 15 -10z m-304 -361 c3 -6 -5 -4 -18 5 -14 9 -28 13 -33 9 -4 -5 -5 -2
-1 5 8 13 39 2 52 -19z m50 -21 c3 -4 -1 -5 -10 -4 -8 1 -18 5 -22 8 -3 4 1 5
10 4 8 -1 18 -5 22 -8z m619 -144 c-14 -28 -14 -29 7 -32 12 -2 27 3 34 12 6
9 17 16 25 16 11 0 11 -2 -1 -11 -11 -8 -7 -9 20 -6 19 3 30 3 24 1 -7 -3 -10
-13 -7 -24 3 -12 -2 -20 -16 -25 -12 -3 -21 -10 -21 -14 0 -13 -43 -55 -73
-70 -15 -8 -27 -18 -27 -22 0 -15 34 -3 62 24 33 30 50 35 42 12 -4 -8 -9 -15
-13 -15 -4 0 -41 -34 -82 -75 -41 -41 -87 -84 -103 -96 l-29 -22 5 51 c5 53
-4 72 -33 72 -18 0 -29 -19 -29 -53 0 -18 -2 -19 -10 -7 -5 8 -10 11 -10 7 0
-4 -12 4 -27 18 -15 14 -32 25 -36 25 -5 0 -6 12 -3 27 5 16 3 29 -5 34 -7 4
-13 25 -13 47 -1 22 2 38 6 36 4 -3 15 7 24 20 9 14 28 32 42 39 15 7 37 20
49 27 20 13 24 12 38 -5 9 -11 14 -14 10 -7 -4 7 1 12 14 12 11 0 23 5 26 10
10 16 35 12 35 -6 0 -8 -4 -12 -10 -9 -5 3 -10 1 -10 -5 0 -24 99 30 101 54 0
8 2 8 5 0 3 -6 -2 -24 -11 -40z m115 6 c0 -5 -4 -10 -10 -10 -5 0 -10 5 -10
10 0 6 5 10 10 10 6 0 10 -4 10 -10z m-20 -104 c0 -11 -19 -15 -25 -6 -3 5 1
10 9 10 9 0 16 -2 16 -4z m185 -142 c13 -28 14 -38 5 -50 -17 -19 -30 -18 -57
8 -27 26 -28 35 -6 60 24 27 39 22 58 -18z m-495 -80 c0 -8 -5 -12 -10 -9 -6
4 -8 11 -5 16 9 14 15 11 15 -7z"/>
<path d="M3980 9000 c0 -5 5 -10 10 -10 6 0 10 5 10 10 0 6 -4 10 -10 10 -5 0
-10 -4 -10 -10z"/>
<path d="M4080 8900 c0 -5 5 -10 11 -10 5 0 7 5 4 10 -3 6 -8 10 -11 10 -2 0
-4 -4 -4 -10z"/>
<path d="M4453 8565 c0 -8 4 -12 9 -9 5 3 6 10 3 15 -9 13 -12 11 -12 -6z"/>
<path d="M4430 8530 c0 -5 5 -10 10 -10 6 0 10 5 10 10 0 6 -4 10 -10 10 -5 0
-10 -4 -10 -10z"/>
<path d="M3500 8520 c0 -5 5 -10 10 -10 6 0 10 5 10 10 0 6 -4 10 -10 10 -5 0
-10 -4 -10 -10z"/>
<path d="M3680 8444 c0 -8 5 -12 10 -9 6 4 8 11 5 16 -9 14 -15 11 -15 -7z"/>
<path d="M4195 8430 c-3 -5 -1 -10 4 -10 6 0 11 5 11 10 0 6 -2 10 -4 10 -3 0
-8 -4 -11 -10z"/>
<path d="M3840 8420 c0 -5 5 -10 11 -10 5 0 7 5 4 10 -3 6 -8 10 -11 10 -2 0
-4 -4 -4 -10z"/>
<path d="M3923 8409 c3 -9 0 -22 -6 -28 -7 -7 -1 -6 16 1 14 7 21 15 14 17 -7
2 -16 9 -20 15 -6 7 -7 5 -4 -5z"/>
<path d="M3716 8382 c-3 -6 -1 -14 5 -17 15 -10 25 3 12 16 -7 7 -13 7 -17 1z"/>
<path d="M3580 8350 c-8 -5 -11 -12 -7 -16 4 -4 13 -2 19 4 15 15 7 24 -12 12z"/>
<path d="M3681 8303 c-1 -6 -4 -20 -7 -30 -5 -17 -5 -17 6 0 6 10 9 23 6 30
-3 9 -5 9 -5 0z"/>
<path d="M3716 8271 c-3 -5 1 -11 9 -14 9 -4 12 -1 8 9 -6 16 -10 17 -17 5z"/>
<path d="M3650 8149 c0 -5 5 -7 10 -4 6 3 10 8 10 11 0 2 -4 4 -10 4 -5 0 -10
-5 -10 -11z"/>
<path d="M4280 8101 c0 -6 4 -13 10 -16 6 -3 7 1 4 9 -7 18 -14 21 -14 7z"/>
<path d="M4180 7400 c0 -5 5 -10 10 -10 6 0 10 5 10 10 0 6 -4 10 -10 10 -5 0
-10 -4 -10 -10z"/>
<path d="M3691 6994 c0 -11 3 -14 6 -6 3 7 2 16 -1 19 -3 4 -6 -2 -5 -13z"/>
<path d="M4590 6300 c0 -5 5 -10 10 -10 6 0 10 5 10 10 0 6 -4 10 -10 10 -5 0
-10 -4 -10 -10z"/>
<path d="M5680 6200 c0 -5 4 -10 9 -10 6 0 13 5 16 10 3 6 -1 10 -9 10 -9 0
-16 -4 -16 -10z"/>
<path d="M4280 6226 c0 -2 9 -6 20 -9 11 -3 20 -1 20 4 0 5 -9 9 -20 9 -11 0
-20 -2 -20 -4z"/>
</g>
</svg>
